<?xml version="1.0" encoding="UTF-8"?>
<svg xmlns="http://www.w3.org/2000/svg" version="1.1" viewBox="0 0 557.79 344.87">
  <defs>
    <style>
      .cls-1 {
        fill: #5d5c5c;
      }
    </style>
  </defs>
  <!-- Generator: Adobe Illustrator 28.7.10, SVG Export Plug-In . SVG Version: 1.2.0 Build 236)  -->
  <g>
    <g id="Layer_1">
      <g>
        <path d="M197.71,66.61c-37.06,74.11-73.98,147.93-111,221.96.72.03,1.24.08,1.75.08,35.77,0,71.53,0,107.3.03,1.17,0,1.73-.36,2.25-1.39,14.34-28.74,28.71-57.47,43.07-86.19.24-.48.49-.96.85-1.66.75,1.42,1.43,2.67,2.08,3.94,8.22,16.07,16.43,32.14,24.68,48.19.48.93.51,1.65.03,2.61-12.55,25.02-25.06,50.06-37.55,75.11-.46.92-.97,1.27-2.03,1.26-72.08-.03-144.16-.02-216.24-.03-.43,0-.87-.04-1.49-.08.26-.57.43-1.02.65-1.45C64.77,223.61,117.48,118.22,170.16,12.82c.47-.94.99-1.26,2.03-1.26,16.94.03,33.87.04,50.81,0,1.2,0,1.81.35,2.36,1.45,38.91,77.88,77.85,155.75,116.79,233.61,13.83,27.66,27.68,55.31,41.52,82.96.11.22.18.45.36.88-.67.05-1.23.13-1.79.13-17.04,0-34.07,0-51.11,0-.81,0-1.43,0-1.91-.96-22.21-44.5-44.46-88.99-66.7-133.48-21.28-42.56-42.57-85.11-63.85-127.66-.26-.53-.53-1.05-.96-1.89Z"/>
        <path class="cls-1" d="M362.48,67.78c-14.64,29.22-29.14,58.16-43.76,87.33-2.04-3.98-3.96-7.72-5.87-11.47-7.1-13.92-14.18-27.84-21.31-41.73-.52-1-.32-1.72.12-2.61,14.28-28.51,28.55-57.03,42.77-85.57.72-1.45,1.44-2.05,3.21-2.02,9.31.14,18.63.06,27.94.07,7.37,0,14.74.02,22.12-.02,1.19,0,1.84.31,2.4,1.44,18.55,37.39,37.14,74.76,55.72,112.14,9.63,19.38,19.26,38.76,28.89,58.14,13.77,27.71,27.55,55.42,41.31,83.13,10.25,20.63,20.48,41.26,30.72,61.9.28.57.54,1.14.92,1.93-.73.04-1.25.09-1.76.09-16.64,0-33.27,0-49.91.03-1.1,0-1.66-.34-2.15-1.33-10.08-20.16-20.2-40.29-30.31-60.43-14.8-29.48-29.6-58.95-44.4-88.43-14.69-29.25-29.38-58.51-44.08-87.76-3.91-7.78-7.82-15.56-11.74-23.33-.2-.4-.43-.78-.82-1.48Z"/>
      </g>
    </g>
  </g>
</svg>