<?xml version="1.0" encoding="UTF-8"?>
<svg xmlns="http://www.w3.org/2000/svg" version="1.1" viewBox="0 0 612 342.12">
  <defs>
    <style>
      .cls-1 {
        fill: #686768;
      }

      .cls-2 {
        fill: #fffefe;
      }
    </style>
  </defs>
  <!-- Generator: Adobe Illustrator 28.7.10, SVG Export Plug-In . SVG Version: 1.2.0 Build 236)  -->
  <g>
    <g id="Layer_1">
      <g>
        <path class="cls-2" d="M114.75,287.02h2.86c34.92,0,69.84,0,104.76,0,.41,0,.82-.04,1.22,0,.97.12,1.45-.38,1.85-1.2,1.35-2.79,2.76-5.54,4.14-8.31,12.72-25.43,25.45-50.85,38.17-76.28.36-.72.75-1.43,1.13-2.14.73.2.81.82,1.05,1.29,8.44,16.45,16.86,32.91,25.33,49.35.61,1.18.69,2.12.06,3.37-12.32,24.53-24.6,49.08-36.83,73.66-.65,1.31-1.4,1.84-2.82,1.69-.97-.1-1.96-.02-2.94-.02H40.74c-.14-1.19.54-1.97.96-2.8,20.22-40.44,40.45-80.87,60.68-121.3,31.68-63.31,63.36-126.61,94.99-189.94.85-1.7,1.79-2.29,3.71-2.28,16.07.09,32.15.1,48.22,0,1.98-.01,2.83.69,3.66,2.35,51.91,103.83,103.86,207.64,155.79,311.45.35.71.9,1.36.9,2.38-.65.28-1.38.15-2.07.15-16.24,0-32.47-.04-48.71.07-2.06.01-2.98-.74-3.83-2.46-34.6-69.24-69.24-138.45-103.87-207.67-8.17-16.32-16.33-32.64-24.5-48.96-.43-.85-.9-1.68-1.56-2.92-36.84,73.62-73.48,146.85-110.34,220.52Z"/>
        <path class="cls-1" d="M571.98,328.3c-.89.32-1.71.19-2.52.19-15.58,0-31.17-.05-46.75.07-2.25.02-3.29-.77-4.24-2.68-11.21-22.47-22.5-44.89-33.77-67.32-28.62-56.96-57.23-113.92-85.85-170.88-2.93-5.83-5.87-11.65-8.82-17.46-.33-.65-.55-1.37-1.21-1.94-.9.37-1.09,1.31-1.47,2.06-4.43,8.81-8.83,17.64-13.25,26.46-9.17,18.29-18.34,36.58-27.53,54.86-.36.71-.57,1.52-1.33,2.11-.77-.55-1.01-1.45-1.4-2.21-8.38-16.4-16.74-32.82-25.14-49.22-.61-1.19-.69-2.16-.06-3.41,14.15-28.19,28.27-56.4,42.34-84.63.68-1.36,1.46-1.82,2.98-1.81,16.24.06,32.47.08,48.71-.01,2.02-.01,3,.67,3.88,2.43,26.63,53.67,53.31,107.31,79.98,160.96,16.98,34.16,33.95,68.33,50.93,102.49,7.87,15.84,15.76,31.67,23.63,47.51.36.72.87,1.38.88,2.45Z"/>
      </g>
    </g>
  </g>
</svg>